<?xml version="1.0" encoding="UTF-8" standalone="no"?>
<!-- Created with Inkscape (http://www.inkscape.org/) -->

<svg
   xmlns:dc="http://purl.org/dc/elements/1.1/"
   xmlns:cc="http://creativecommons.org/ns#"
   xmlns:rdf="http://www.w3.org/1999/02/22-rdf-syntax-ns#"
   xmlns:svg="http://www.w3.org/2000/svg"
   xmlns="http://www.w3.org/2000/svg"
   xmlns:sodipodi="http://sodipodi.sourceforge.net/DTD/sodipodi-0.dtd"
   xmlns:inkscape="http://www.inkscape.org/namespaces/inkscape"
   width="99"
   height="68"
   id="svg5092"
   version="1.1"
   inkscape:version="0.48.5 r10040"
   sodipodi:docname="drawing.svg">
  <defs
     id="defs5094" />
  <sodipodi:namedview
     id="base"
     pagecolor="#ffffff"
     bordercolor="#666666"
     borderopacity="1.0"
     inkscape:pageopacity="0.0"
     inkscape:pageshadow="2"
     inkscape:zoom="3.2375"
     inkscape:cx="80"
     inkscape:cy="80"
     inkscape:document-units="px"
     inkscape:current-layer="layer1"
     showgrid="false"
     inkscape:window-width="1366"
     inkscape:window-height="705"
     inkscape:window-x="-8"
     inkscape:window-y="-8"
     inkscape:window-maximized="1" />
  <metadata
     id="metadata5097">
    <rdf:RDF>
      <cc:Work
         rdf:about="">
        <dc:format>image/svg+xml</dc:format>
        <dc:type
           rdf:resource="http://purl.org/dc/dcmitype/StillImage" />
        <dc:title></dc:title>
      </cc:Work>
    </rdf:RDF>
  </metadata>
  <g
     inkscape:label="Layer 1"
     inkscape:groupmode="layer"
     id="layer1"
     transform="translate(0,-984.36218)">
    <path
       sodipodi:type="arc"
       style="fill:#ffffff;fill-opacity:1;stroke:none"
       id="path5124"
       sodipodi:cx="568.57141"
       sodipodi:cy="7.1428571"
       sodipodi:rx="265.71429"
       sodipodi:ry="198.57143"
       d="m 834.28571,7.1428571 c 0,109.6679729 -118.96435,198.5714229 -265.7143,198.5714229 -146.74995,0 -265.71429,-88.90345 -265.71429,-198.5714229 0,-109.6679671 118.96434,-198.5714271 265.71429,-198.5714271 146.74995,0 265.7143,88.90346 265.7143,198.5714271 z"
       transform="translate(0,892.36218)" />
    <g
       transform="translate(371.26157,-74.625248)"
       id="g5088">
      <path
         inkscape:connector-curvature="0"
         id="path4867-20"
         d="m -355.17319,1059.7114 c -8.62924,0.3129 -17.58592,9.0633 -14.96077,18.2845 1.36503,5.2479 5.52628,8.97 9.29179,12.5042 -2.28086,4.4061 -5.90094,10.1086 -2.34811,14.8713 3.26182,4.0765 9.31001,3.6939 13.94649,4.6961 18.14486,2.0882 36.50574,1.4489 54.71687,0.627 5.60772,-0.8068 13.13585,-0.4467 15.96897,-6.5924 1.06969,-4.5598 -1.4221,-8.939 -3.13643,-13.0016 4.8314,-3.8354 9.79077,-9.0702 8.98993,-15.8661 0.0357,-9.4313 -9.62113,-16.9012 -18.48293,-14.5968 -4.45918,0.8175 -7.15021,4.8372 -10.78448,6.9811 -6.21403,-3.6984 -12.91316,-8.224 -20.52918,-7.3413 -6.67385,-0.092 -12.27132,3.9387 -17.8959,6.9982 -4.21576,-3.397 -8.43372,-8.0162 -14.30664,-7.5814 l -0.46961,0.017 z m -4.41105,7.2555 c 4.86563,-0.3293 8.39272,4.7275 7.49715,9.4339 -0.1858,7.2075 -10.56626,9.8003 -14.57503,4.1166 -4.48483,-5.4014 0.06,-14.5847 7.07788,-13.5505 z m 77.70542,0.3945 c 7.28494,0.1915 10.82532,11.4621 4.46138,15.5745 -4.30259,2.7607 -11.16187,1.4064 -12.62944,-4.0651 -2.14894,-5.7666 2.37324,-11.3689 8.16806,-11.5094 z"
         style="fill:#ffffff;fill-opacity:1;stroke:none" />
      <path
         sodipodi:nodetypes="ccccsc"
         inkscape:connector-curvature="0"
         id="path4869-5"
         d="m -354.18101,1113.6918 c -2.92218,0.5899 1.4745,2.9861 2.44379,3.5384 13.07344,7.5143 28.49148,11.3355 43.39586,8.1527 7.88322,-1.6533 15.67316,-4.9238 22.36877,-9.3899 -0.85387,-2.2273 -4.67856,-1.4513 -7.06528,-1.2867 -23.31611,1.6084 -41.8351,2.4146 -61.14314,-1.0145 z"
         style="fill:#ffffff;fill-opacity:1;stroke:none" />
    </g>
  </g>
</svg>
